<?xml version="1.0" standalone="no"?><!DOCTYPE svg PUBLIC "-//W3C//DTD SVG 1.1//EN" "http://www.w3.org/Graphics/SVG/1.1/DTD/svg11.dtd"><svg t="1561514066267" class="icon" viewBox="0 0 1024 1024" version="1.1" xmlns="http://www.w3.org/2000/svg" p-id="5466" width="40" height="40" xmlns:xlink="http://www.w3.org/1999/xlink"><defs><style type="text/css"></style></defs><path d="M302.420239 301.240879l-53.324486 0 0 414.96806 53.324486 0 0 103.038748L64.266188 819.247686 64.266188 716.208938l52.522214 0L116.788401 301.240879 64.266188 301.240879 64.266188 198.202131l238.154052 0L302.420239 301.240879z" p-id="5467" fill="#3E869F"></path><path d="M353.740068 516.943592c0-97.28879 28.39777-176.47427 85.198427-237.553371 56.794517-61.072961 131.836631-91.613534 225.124294-91.613534 88.739067 0 160.171979 29.537733 214.299761 88.60706 54.124711 59.074444 81.189114 134.982274 81.189114 227.729631 0 96.762811-28.134781 175.277002-84.397179 235.548714-56.267515 60.276828-129.972167 90.412173-221.11498 90.412173-89.007173 0-161.312966-29.200042-216.905098-87.605244C381.537158 684.068937 353.740068 608.895841 353.740068 516.943592zM492.864686 509.726214c0 60.408835 14.564717 109.793592 43.701315 148.145062 29.130458 38.35761 69.091588 57.534368 119.878275 57.534368 51.850925 0 92.215238-18.373463 121.082706-55.128575 28.866445-36.746926 43.300178-86.131683 43.300178-148.144038 0-64.683185-14.034645-115.801423-42.098817-153.357783-28.065196-37.550221-67.626213-56.33096-118.677936-56.33096-51.858088 0-92.683912 19.24532-122.484635 57.733912C507.760954 398.667815 492.864686 448.521247 492.864686 509.726214z" p-id="5468" fill="#3E869F"></path></svg>